<?xml version="1.0" encoding="UTF-8"?>
<svg width="34px" height="34px" viewBox="0 0 34 34" version="1.1" xmlns="http://www.w3.org/2000/svg" xmlns:xlink="http://www.w3.org/1999/xlink">
    <!-- Generator: Sketch 49 (51002) - http://www.bohemiancoding.com/sketch -->
    <title>ic_delete@2x</title>
    <desc>Created with Sketch.</desc>
    <defs></defs>
    <g id="Ｈ５页面" stroke="none" stroke-width="1" fill="none" fill-rule="evenodd">
        <g id="查看合同内容-－弹窗" transform="translate(-171.000000, -505.000000)">
            <text id="2.2-有下列情形之一的，甲方可以调整乙" font-family="PingFangSC-Regular, PingFang SC" font-size="12" font-weight="normal" fill="#333333">
                <tspan x="21" y="529">2.2  有下列情形之一的，甲方可以调整乙方的工作岗位：</tspan>
            </text>
            <rect id="Rectangle-17-Copy" fill="#000000" opacity="0.504472373" x="0" y="0" width="375" height="667"></rect>
            <g id="ic_delete" transform="translate(171.000000, 505.000000)">
                <g>
                    <path d="M17,0 C7.60973683,0 0,7.60973683 0,17 C0,26.3902632 7.60973683,34 17,34 C26.3902632,34 34,26.3902632 34,17 C34,7.60973683 26.3902632,0 17,0 Z" id="Shape" fill="#FFFFFF" fill-rule="nonzero"></path>
                    <path d="M18.2660526,17 L23.8939474,11.3676316 C24.2473684,11.0186842 24.2473684,10.455 23.8939474,10.1060526 C23.545,9.75263159 22.9813158,9.75263159 22.6323684,10.1060526 L17,15.7339474 L11.3676316,10.1060526 C11.0186842,9.75263159 10.455,9.75263159 10.1060526,10.1060526 C9.75263159,10.455 9.75263159,11.0186842 10.1060526,11.3676316 L15.7339474,17 L10.1060526,22.6323684 C9.75263159,22.9813158 9.75263159,23.545 10.1060526,23.8939474 C10.2805263,24.0684211 10.5086842,24.1578947 10.7368421,24.1578947 C10.965,24.1578947 11.1931579,24.0684211 11.3676316,23.8939474 L17,18.2660526 L22.6323684,23.8939474 C22.8068421,24.0684211 23.035,24.1578947 23.2631579,24.1578947 C23.4913158,24.1578947 23.7194737,24.0684211 23.8939474,23.8939474 C24.2473684,23.545 24.2473684,22.9813158 23.8939474,22.6323684 L18.2660526,17 Z" id="Path" fill="#F95714"></path>
                </g>
            </g>
            <path d="M187.5,473.5 L187.5,507.514703" id="Line" stroke="#FFFFFF" stroke-linecap="square" stroke-dasharray="1,2"></path>
        </g>
    </g>
</svg>