<?xml version="1.0" encoding="UTF-8"?>
<svg width="34px" height="66px" viewBox="0 0 34 66" version="1.1" xmlns="http://www.w3.org/2000/svg" xmlns:xlink="http://www.w3.org/1999/xlink">
    <!-- Generator: Sketch 49 (51002) - http://www.bohemiancoding.com/sketch -->
    <title>ic_delete</title>
    <desc>Created with Sketch.</desc>
    <defs></defs>
    <g id="Symbols" stroke="none" stroke-width="1" fill="none" fill-rule="evenodd">
        <g id="ic_delete">
            <g>
                <path d="M17,32 C7.60973683,32 0,39.6097368 0,49 C0,58.3902632 7.60973683,66 17,66 C26.3902632,66 34,58.3902632 34,49 C34,39.6097368 26.3902632,32 17,32 Z" id="Shape" fill="#FFFFFF" fill-rule="nonzero"></path>
                <path d="M18.2660526,49 L23.8939474,43.3676316 C24.2473684,43.0186842 24.2473684,42.455 23.8939474,42.1060526 C23.545,41.7526316 22.9813158,41.7526316 22.6323684,42.1060526 L17,47.7339474 L11.3676316,42.1060526 C11.0186842,41.7526316 10.455,41.7526316 10.1060526,42.1060526 C9.75263159,42.455 9.75263159,43.0186842 10.1060526,43.3676316 L15.7339474,49 L10.1060526,54.6323684 C9.75263159,54.9813158 9.75263159,55.545 10.1060526,55.8939474 C10.2805263,56.0684211 10.5086842,56.1578947 10.7368421,56.1578947 C10.965,56.1578947 11.1931579,56.0684211 11.3676316,55.8939474 L17,50.2660526 L22.6323684,55.8939474 C22.8068421,56.0684211 23.035,56.1578947 23.2631579,56.1578947 C23.4913158,56.1578947 23.7194737,56.0684211 23.8939474,55.8939474 C24.2473684,55.545 24.2473684,54.9813158 23.8939474,54.6323684 L18.2660526,49 Z" id="Path" fill="#F95714"></path>
                <path d="M16.5,0.5 L16.5,34.5147027" id="Line" stroke="#FFFFFF" stroke-linecap="square" stroke-dasharray="1,2"></path>
            </g>
        </g>
    </g>
</svg>