<?xml version="1.0" encoding="UTF-8"?>
<svg width="16px" height="16px" viewBox="0 0 16 16" version="1.1" xmlns="http://www.w3.org/2000/svg" xmlns:xlink="http://www.w3.org/1999/xlink">
    <!-- Generator: Sketch 49 (51002) - http://www.bohemiancoding.com/sketch -->
    <title>ic_password</title>
    <desc>Created with Sketch.</desc>
    <defs>
        <polygon id="path-1" points="0 0 16 0 16 16 0 16"></polygon>
    </defs>
    <g id="Symbols" stroke="none" stroke-width="1" fill="none" fill-rule="evenodd">
        <g id="ic_password">
            <g>
                <mask id="mask-2" fill="white">
                    <use xlink:href="#path-1"></use>
                </mask>
                <g id="Clip-2"></g>
                <path d="M8.53007065,4.95652508 L10.4354246,2.98026336 C9.94304523,2.51414075 9.92388459,1.74479312 10.3938608,1.25629663 C10.8637387,0.767702006 11.6437242,0.751804772 12.1361036,1.21782925 L13.232682,0.231513812 C13.232682,0.231513812 13.9998938,-0.477385074 15.118777,0.585766993 C16.5222204,1.92348981 15.8286052,2.68017853 15.8286052,2.68017853 L11.2026364,7.48192829 C12.3887293,9.66887743 12.0912972,12.4465756 10.2659266,14.3399166 C9.57859998,15.0518576 8.75705057,15.5498728 7.87792097,15.8468174 L7.85866207,14.9879742 C8.52368377,14.7262586 9.14694509,14.3270614 9.67459971,13.7811583 C11.1833775,12.219991 11.4808096,9.95630335 10.60168,8.11094848 L10.1669791,7.3831103 L14.7832201,2.59706151 C14.7832201,2.59706151 15.4257404,1.99384979 14.5785452,1.25629663 C13.7889302,0.566631433 13.2965508,1.19565162 13.2965508,1.19565162 L12.164992,2.36733666 L11.570226,1.80533999 C11.4073114,1.64891906 11.1450562,1.65529758 10.9884303,1.81809703 C10.831706,1.98099462 10.8381912,2.23633168 11.0013023,2.39285074 L11.5958718,2.95474928 L8.65790653,6.00054158 L7.92587171,5.58230694 C6.02366204,4.80000601 3.75396107,5.19910509 2.24498675,6.7603705 C0.288537723,8.7908987 0.362035984,12.0060652 2.41124217,13.9439577 C3.04108689,14.5409872 3.78579721,14.9432265 4.57236617,15.1602924 L4.59142855,16 C3.59409253,15.7669387 2.6382221,15.2849189 1.84222021,14.5314685 C-0.536352517,12.2838743 -0.62252628,8.5546972 1.64717469,6.20161216 C3.47893215,4.30846746 6.26980261,3.88385429 8.53007065,4.95652508 M4.62346122,9.00492258 C3.91697392,9.73609722 3.94566576,10.8916888 4.68418572,11.5908727 C5.42260741,12.2869164 6.59278226,12.2613042 7.29592873,11.5302277 C7.99936997,10.799053 7.97372419,9.64346148 7.23530249,8.94427757 C6.49678253,8.24823386 5.3268042,8.27384607 4.62346122,9.00492258 M7.80442271,8.3566687 C8.86896838,9.36565241 8.91053223,11.0353527 7.89069473,12.0922243 C6.87400154,13.1489979 5.18295199,13.1871709 4.11830806,12.1784815 C3.05386066,11.1694978 3.01219854,9.49979759 4.03193778,8.44292591 C5.04558492,7.38939069 6.73653621,7.35102144 7.80442271,8.3566687" id="Fill-1" fill="#303030" mask="url(#mask-2)"></path>
            </g>
        </g>
    </g>
</svg>