<?xml version="1.0" encoding="UTF-8"?>
<svg width="16px" height="16px" viewBox="0 0 16 16" version="1.1" xmlns="http://www.w3.org/2000/svg" xmlns:xlink="http://www.w3.org/1999/xlink">
    <!-- Generator: Sketch 49 (51002) - http://www.bohemiancoding.com/sketch -->
    <title>ic_phone</title>
    <desc>Created with Sketch.</desc>
    <defs></defs>
    <g id="Symbols" stroke="none" stroke-width="1" fill="none" fill-rule="evenodd">
        <g id="ic_phone" fill="#303030">
            <g id="Page-1">
                <path d="M14.4880162,6.36838537 C14.2142845,6.38056124 13.982492,6.16861085 13.9700906,5.89510465 C13.9195833,4.77199303 13.4341267,3.73569089 12.604138,2.97695358 C11.7739238,2.21866722 10.6979373,1.82903926 9.57482569,1.87977206 C9.30109401,1.89194794 9.06930145,1.6804485 9.0569001,1.4069423 C9.04472423,1.13321062 9.25712558,0.901418062 9.52995534,0.889016709 C10.9180049,0.826333508 12.2472045,1.30773148 13.2729091,2.2448228 C14.2988392,3.18191412 14.8981628,4.46218469 14.9610715,5.85045978 C14.9718945,6.09330081 14.8061673,6.3032219 14.577306,6.35575854 C14.5486701,6.36252291 14.5186814,6.36680701 14.4880162,6.36838537 M12.4956825,6.27142934 C12.2219508,6.28383069 11.9901583,6.07210577 11.9775314,5.79837409 C11.9270241,4.6761644 10.9730219,3.80446203 9.85081216,3.85519484 C9.57753144,3.86759619 9.34528792,3.65587128 9.33311205,3.38259055 C9.3207107,3.10885887 9.53333753,2.87706631 9.80616729,2.86443948 C11.474713,2.78890397 12.8934277,4.08518356 12.9685123,5.75372922 C12.9797862,5.99679574 12.8138336,6.20649134 12.5851977,6.25925346 C12.5563364,6.26579236 12.5261222,6.26985098 12.4956825,6.27142934 M10.8704288,6.68247781 C10.5966972,6.69442821 10.3649046,6.48315425 10.3527287,6.20942257 C10.3437096,6.01393215 10.2593804,5.83354884 10.1148482,5.70186902 C9.97076707,5.56996372 9.78361938,5.50231998 9.58812896,5.51111367 C9.31462276,5.5237405 9.08260472,5.3117901 9.07042885,5.0382839 C9.05780202,4.76432674 9.26907597,4.53275966 9.54303313,4.52013283 C10.0032361,4.49893779 10.4438223,4.6588025 10.7838449,4.96928728 C11.1238674,5.28022302 11.32274,5.70457477 11.3434841,6.16455222 C11.3545326,6.40739326 11.1888054,6.6177653 10.9601695,6.67030194 C10.9313082,6.67706631 10.901094,6.68112494 10.8704288,6.68247781 M9.6979373,10.5882275 C9.68215376,10.6344508 9.65915489,10.6781937 9.63051904,10.7176526 C9.59737361,10.7631993 9.29252581,11.1645522 8.80639277,11.2768408 C8.49951566,11.3474158 8.19196211,11.2901441 7.91236797,11.1117901 C7.88237924,11.096232 7.85374339,11.0772918 7.82691137,11.0556458 C7.22307823,10.5634248 6.64494971,10.0164124 6.10763291,9.42926474 C5.61496098,8.89104602 5.15836571,8.32080927 4.75024847,7.73523993 C4.73356301,7.71133914 4.71913234,7.68563452 4.70695647,7.65925346 C4.49974114,7.20784422 4.47809514,6.80761874 4.64269491,6.4707529 C4.85847845,6.02881378 5.30379976,5.91156462 5.34528792,5.90186902 C5.39331498,5.88969315 5.53987643,5.85226361 5.66727214,5.61032449 C5.93807259,5.09420273 5.89049649,4.15620949 5.54618984,3.22182392 C5.02510754,1.80829518 4.01022592,0.896006563 3.44156752,1.02723542 C3.41924508,1.03309788 3.39782456,1.04189157 3.37730596,1.05158717 C3.3401019,1.06782167 3.30086853,1.07932111 3.26073325,1.08653644 C2.71214249,1.17875741 2.241793,1.39859957 1.8774187,1.7345635 C0.0616351625,3.41077545 1.16400269,7.70795696 4.28440856,11.117878 C6.78993279,13.8560968 10.041342,15.4222749 12.1917366,14.9268972 C12.6614097,14.8186672 13.0627626,14.6137067 13.3840703,14.3165252 C13.7389745,13.988904 14.0255585,13.5038983 14.1777569,13.0076187 C14.1906092,12.9656796 14.2072947,12.9135939 14.2293916,12.831745 C14.3736983,12.296683 13.6084221,11.2457247 12.2778697,10.6188927 C11.5146228,10.2592535 10.7353668,10.1190054 10.1921876,10.2441464 C10.0061673,10.2872129 9.76896323,10.3814632 9.6979373,10.5882275 M3.55881667,11.7816886 C-0.0389285354,7.84933238 -1.07072109,3.11877996 1.2104514,1.01257928 C1.7033488,0.557562369 2.32228905,0.259253462 3.03976369,0.127122685 C3.09027101,0.106829562 3.14280765,0.0892421885 3.19737361,0.0752624817 C3.20120675,0.0743605651 3.2266859,0.0680471491 3.23006808,0.0673707116 C4.38677609,-0.199145636 5.77888432,1.01077545 6.46839954,2.88180138 C6.91823043,4.1020945 6.94370957,5.29284985 6.53717068,6.06737071 C6.32093618,6.47864467 5.99331498,6.75102347 5.58023719,6.85654771 C5.57978623,6.85654771 5.53717068,6.87932111 5.5261222,6.90186902 C5.51101509,6.93298514 5.50740743,7.03197049 5.58384486,7.21167736 C5.95994407,7.74876868 6.38001171,8.27097838 6.83232287,8.76567962 C7.32476932,9.30344737 7.85329243,9.80581491 8.40436346,10.2581261 C8.4104514,10.2624102 8.41608838,10.2662433 8.42217631,10.2700765 C8.51372084,10.3356909 8.56242434,10.3244169 8.58542321,10.3190054 C8.66704666,10.3002907 8.75408161,10.226559 8.80481442,10.1740223 C8.99489334,9.73027939 9.40526538,9.41708886 9.97189446,9.28653644 C10.7337885,9.11088819 11.7270241,9.27255673 12.6970354,9.72960296 C14.4769677,10.5690618 15.4632135,12.0215984 15.144837,13.1562095 C15.1164266,13.2576751 15.1137208,13.2682726 15.085085,13.367258 C14.8494593,14.0107754 14.5306318,14.5958938 14.0512631,15.0387349 C13.6021087,15.453391 13.0510376,15.7377202 12.4124807,15.8847326 L12.4127062,15.8847326 C9.89387868,16.4651159 6.33604328,14.8164124 3.55881667,11.7816886"></path>
            </g>
        </g>
    </g>
</svg>