<?xml version="1.0" encoding="UTF-8"?>
<svg width="12px" height="12px" viewBox="0 0 12 12" version="1.1" xmlns="http://www.w3.org/2000/svg" xmlns:xlink="http://www.w3.org/1999/xlink">
    <!-- Generator: Sketch 49 (51002) - http://www.bohemiancoding.com/sketch -->
    <title>ic_remind@2x</title>
    <desc>Created with Sketch.</desc>
    <defs>
        <polygon id="path-1" points="0.00205714286 0.01032 11.9312571 0.01032 11.9312571 11.9414057 0.00205714286 11.9414057"></polygon>
    </defs>
    <g id="Ｈ５页面" stroke="none" stroke-width="1" fill="none" fill-rule="evenodd">
        <g id="查看合同内容-－弹窗" transform="translate(-68.000000, -317.000000)">
            <text id="1.2-双方同意按下列第种方式确定试用期" font-family="PingFangSC-Regular, PingFang SC" font-size="12" font-weight="normal" fill="#333333">
                <tspan x="20" y="301">1.2 双方同意按下列第种方式确定试用期期限(试用期包括在劳动</tspan>
                <tspan x="20" y="318">合同期限内)：</tspan>
            </text>
            <rect id="Rectangle-17-Copy" fill="#000000" opacity="0.504472373" x="0" y="0" width="375" height="667"></rect>
            <g id="Group" transform="translate(53.000000, 153.000000)">
                <rect id="Alert-Background" fill="#FFFFFF" x="0" y="0" width="270" height="322" rx="12"></rect>
                <g id="ic_remind" transform="translate(15.000000, 164.000000)">
                    <g>
                        <mask id="mask-2" fill="white">
                            <use xlink:href="#path-1"></use>
                        </mask>
                        <g id="Clip-2"></g>
                        <path d="M6.65914286,6.16220571 C6.65914286,6.54243429 6.34577143,6.85546286 5.96554286,6.85546286 C5.57777143,6.85546286 5.27228571,6.54243429 5.27228571,6.16220571 L5.27228571,2.91843429 C5.27228571,2.53820571 5.58531429,2.22483429 5.96554286,2.22483429 C6.35331429,2.22483429 6.65914286,2.53820571 6.65914286,2.91843429 L6.65914286,6.16220571 Z M5.96554286,9.16734857 C5.57777143,9.16734857 5.27228571,8.85432 5.27228571,8.47374857 C5.27228571,8.09352 5.58531429,7.78049143 5.96554286,7.78049143 C6.35331429,7.78049143 6.65914286,8.09352 6.65914286,8.47374857 C6.65914286,8.85432 6.35331429,9.16734857 5.96554286,9.16734857 Z M5.96554286,0.01032 C2.66965714,0.01032 0.000171428571,2.67980571 0.000171428571,5.97569143 C0.000171428571,9.27157714 2.66965714,11.9414057 5.96554286,11.9414057 C9.26142857,11.9414057 11.9312571,9.27157714 11.9312571,5.97569143 C11.9312571,2.67980571 9.26142857,0.01032 5.96554286,0.01032 Z" id="Fill-1" fill="#F95714" mask="url(#mask-2)"></path>
                    </g>
                </g>
            </g>
        </g>
    </g>
</svg>