<?xml version="1.0" encoding="UTF-8"?>
<svg width="14px" height="14px" viewBox="0 0 14 14" version="1.1" xmlns="http://www.w3.org/2000/svg" xmlns:xlink="http://www.w3.org/1999/xlink">
    <!-- Generator: Sketch 49 (51002) - http://www.bohemiancoding.com/sketch -->
    <title>ic_round_cb</title>
    <desc>Created with Sketch.</desc>
    <defs></defs>
    <g id="Symbols" stroke="none" stroke-width="1" fill="none" fill-rule="evenodd">
        <g id="ic_round_cb" fill="#F95714">
            <g id="Fill-1">
                <path d="M10.4184779,5.27230088 C9.32387611,6.74861947 8.22939823,8.22692035 7.13479646,9.70336283 C6.90646018,10.0118584 6.37446018,10.2342478 5.99769912,9.97345133 C5.21010619,9.42968142 4.42325664,8.88578761 3.63653097,8.34263717 C3.27661947,8.09385841 3.08755752,7.69665487 3.33819469,7.30874336 C3.5460885,6.98575221 4.11389381,6.78789381 4.47615929,7.03766372 C5.26300885,7.58069027 6.21674336,8.24054867 6.21674336,8.24054867 C7.13814159,6.99677876 8.05892035,5.75300885 8.98118584,4.51023009 C9.57612389,3.70727434 11.0186195,4.46253097 10.4184779,5.27230088 M6.98302655,0 C3.12670796,0 0,3.1259646 0,6.98315044 C0,10.8403363 3.12670796,13.966177 6.98302655,13.966177 C10.839469,13.966177 13.966177,10.8395929 13.966177,6.98315044 C13.966177,3.12670796 10.839469,0 6.98302655,0"></path>
            </g>
        </g>
    </g>
</svg>