<?xml version="1.0" encoding="UTF-8"?>
<svg width="132px" height="84px" viewBox="0 0 132 84" version="1.1" xmlns="http://www.w3.org/2000/svg" xmlns:xlink="http://www.w3.org/1999/xlink">
    <!-- Generator: Sketch 49 (51002) - http://www.bohemiancoding.com/sketch -->
    <title>ic_upload@2x</title>
    <desc>Created with Sketch.</desc>
    <defs>
        <path d="M5,0 L127,0 C129.761424,-5.07265313e-16 132,2.23857625 132,5 L132,79 C132,81.7614237 129.761424,84 127,84 L5,84 C2.23857625,84 3.38176876e-16,81.7614237 0,79 L0,5 C-3.38176876e-16,2.23857625 2.23857625,5.07265313e-16 5,0 Z" id="path-1"></path>
        <mask id="mask-2" maskContentUnits="userSpaceOnUse" maskUnits="objectBoundingBox" x="0" y="0" width="132" height="84" fill="white">
            <use xlink:href="#path-1"></use>
        </mask>
    </defs>
    <g id="Ｈ５页面" stroke="none" stroke-width="1" fill="none" fill-rule="evenodd">
        <g id="认证并签署" transform="translate(-51.000000, -255.000000)">
            <rect id="Rectangle-4" fill="#F5F5F5" x="0" y="267" width="375" height="40"></rect>
            <rect id="Rectangle-6-Copy-2" fill="#FFFFFF" x="0" y="210" width="375" height="178"></rect>
            <g id="上传图片-1" transform="translate(51.000000, 255.000000)">
                <g id="ic_upload">
                    <g>
                        <use id="Rectangle-5" stroke="#CDCDCD" mask="url(#mask-2)" stroke-width="2" fill="#F9F9F9" stroke-linecap="round" stroke-linejoin="round" stroke-dasharray="1,3" xlink:href="#path-1"></use>
                        <path d="M67.2809292,43.25 L67.2809292,57.0833333 C67.2809292,58.1666667 66.6975959,58.7505952 65.7809292,58.6666667 C65.0309292,58.6666667 64.5309292,58.1666667 64.5309292,57.3333333 L64.5309292,43.25 L50.4475959,43.25 C49.8642625,43.25 49.3642625,43 49.1148578,42.4172619 C48.8648578,41.9166667 49.0315245,41.0833333 49.5315245,40.75 C49.7809292,40.5833333 50.1975959,40.4166667 50.5309292,40.4166667 L64.5309292,40.4166667 L64.5309292,26.5 C64.5309292,25.5 64.9481911,25 65.8648578,25 C66.6981911,25 67.2809292,25.5833333 67.2809292,26.5 L67.2809292,40.4166667 L81.1975959,40.4166667 C82.0309292,40.4166667 82.6975959,41 82.6975959,41.75 C82.6975959,42.5005952 82.0309292,43.1666667 81.1975959,43.1666667 C76.6142625,43.25 72.0309292,43.25 67.2809292,43.25 Z" id="Fill-1" fill="#CDCDCD"></path>
                    </g>
                </g>
            </g>
        </g>
    </g>
</svg>