<?xml version="1.0" encoding="UTF-8"?>
<svg width="16px" height="16px" viewBox="0 0 16 16" version="1.1" xmlns="http://www.w3.org/2000/svg" xmlns:xlink="http://www.w3.org/1999/xlink">
    <!-- Generator: Sketch 49 (51002) - http://www.bohemiancoding.com/sketch -->
    <title>ic_error</title>
    <desc>Created with Sketch.</desc>
    <defs></defs>
    <g id="Symbols" stroke="none" stroke-width="1" fill="none" fill-rule="evenodd">
        <g id="ic_error" fill="#F95714">
            <g id="错误提示">
                <g transform="translate(1.000000, 1.000000)">
                    <g id="Group-3" transform="translate(0.000000, 0.017868)">
                        <path d="M11.8900895,9.20470526 C11.6027211,9.88444211 11.1911947,10.4945474 10.6669316,11.0191789 C10.1467211,11.5401263 9.53072105,11.9557053 8.85245789,12.2423368 C8.14877368,12.5400211 7.40124737,12.6907053 6.63051053,12.6907053 C5.86014211,12.6907053 5.11261579,12.5400211 4.40893158,12.2423368 C3.72919474,11.9549684 3.11872105,11.5434421 2.59482632,11.0191789 C2.07351053,10.4989684 1.65793158,9.88296842 1.3713,9.20470526 C1.07361579,8.50102105 0.922931579,7.75386316 0.922931579,6.98312632 C0.922931579,6.21238947 1.07361579,5.46486316 1.3713,4.76117895 C1.65793158,4.08328421 2.07314211,3.46691579 2.59482632,2.94707368 C3.11466842,2.42575789 3.73103684,2.01017895 4.40893158,1.72354737 C5.11261579,1.42623158 5.86014211,1.27517895 6.63051053,1.27517895 C7.40124737,1.27517895 8.14877368,1.42586316 8.85208947,1.72354737 C9.53219474,2.01128421 10.1423,2.42281053 10.6665632,2.94707368 C11.1878789,3.46691579 11.6034579,4.08328421 11.8900895,4.76117895 C12.1877737,5.46486316 12.3384579,6.21238947 12.3384579,6.98312632 C12.3384579,7.75386316 12.1877737,8.50102105 11.8900895,9.20470526 M12.7404053,4.40196842 C12.4062474,3.61244211 11.9284053,2.90323158 11.3190368,2.2946 C10.7104053,1.6856 10.0011947,1.20738947 9.21166842,0.8736 C8.39414211,0.527652632 7.52577368,0.352284211 6.63087895,0.352284211 C5.73561579,0.352284211 4.86724737,0.527652632 4.04972105,0.8736 C3.26056316,1.20738947 2.55098421,1.6856 1.94235263,2.2946 C1.33335263,2.90323158 0.855142105,3.61244211 0.521352632,4.40196842 C0.175405263,5.21949474 3.68421053e-05,6.08823158 3.68421053e-05,6.98312632 C3.68421053e-05,7.87802105 0.175405263,8.74638947 0.521352632,9.56391579 C0.855142105,10.3534421 1.33335263,11.0626526 1.94235263,11.6712842 C2.55098421,12.2802842 3.26019474,12.7584947 4.04972105,13.0922842 C4.86724737,13.4382316 5.73561579,13.6136 6.63087895,13.6136 C7.52577368,13.6136 8.39414211,13.4382316 9.21166842,13.0922842 C10.0011947,12.7584947 10.7104053,12.2802842 11.3194053,11.6712842 C11.9284053,11.0626526 12.4062474,10.3534421 12.7404053,9.56391579 C13.0859842,8.74638947 13.2613526,7.87802105 13.2613526,6.98312632 C13.2613526,6.08823158 13.0859842,5.21949474 12.7404053,4.40196842" id="Fill-1"></path>
                    </g>
                    <path d="M6.63076842,9.14524211 C6.22292632,9.14524211 5.89171579,9.47571579 5.89171579,9.88392632 C5.89171579,10.2925053 6.22255789,10.6237158 6.63076842,10.6237158 C7.03897895,10.6237158 7.36945263,10.2925053 7.36945263,9.88392632 C7.36945263,9.47645263 7.03861053,9.14524211 6.63076842,9.14524211 Z M7.19297895,8.02008421 C7.15466316,8.43603158 6.89050526,8.63055789 6.62929474,8.63055789 C6.43513684,8.63055789 6.62929474,8.63055789 6.62929474,8.63055789 C6.38097895,8.58413684 6.18866316,8.47803158 6.10392632,8.05729474 L5.76276842,4.12366316 C5.76276842,3.72834737 6.24355789,3.37834737 6.6514,3.37834737 C7.05924211,3.37834737 7.4984,3.74418947 7.4984,4.13913684 L7.19297895,8.02008421 Z" id="Fill-4"></path>
                </g>
            </g>
        </g>
    </g>
</svg>