<?xml version="1.0" encoding="UTF-8"?>
<svg width="160px" height="53px" viewBox="0 0 160 53" version="1.1" xmlns="http://www.w3.org/2000/svg" xmlns:xlink="http://www.w3.org/1999/xlink">
    <!-- Generator: Sketch 49 (51002) - http://www.bohemiancoding.com/sketch -->
    <title>logo@2x</title>
    <desc>Created with Sketch.</desc>
    <defs>
        <polygon id="path-1" points="4.93563992 2.65458261 4.93563992 0.249673589 0.419995303 0.249673589 0.419995303 2.65458261 4.93563992 2.65458261"></polygon>
        <polygon id="path-3" points="0 51.9476102 158.235053 51.9476102 158.235053 0.000150293542 0 0.000150293542"></polygon>
    </defs>
    <g id="Ｈ５页面" stroke="none" stroke-width="1" fill="none" fill-rule="evenodd">
        <g id="输入手机号获取密码" transform="translate(-20.000000, -104.000000)">
            <path d="M197.319878,135.481004 C197.923882,135.481004 198.522752,135.522942 199.116336,135.585733 C197.502903,128.407377 189.472201,123.073982 180.306656,123.073982 C170.058517,123.073982 161.664371,129.74985 161.664371,138.226211 C161.664371,143.119987 164.457159,147.136977 169.124932,150.253798 L167.260443,155.610731 L173.776999,152.488697 C176.109583,152.931 177.979282,153.38373 180.306656,153.38373 C180.892426,153.38373 181.472986,153.357509 182.04826,153.313041 C181.682135,152.122296 181.472986,150.87405 181.472986,149.581259 C181.470305,141.798368 188.465452,135.481004 197.319878,135.481004 Z M187.296593,130.650096 C188.700802,130.650096 189.629101,131.532019 189.629101,132.874568 C189.629101,134.20922 188.698197,135.104176 187.296593,135.104176 C185.900123,135.104176 184.495915,134.20922 184.495915,132.874568 C184.495915,131.534625 185.900123,130.650096 187.296593,130.650096 Z M174.247699,135.104176 C172.851305,135.104176 171.439206,134.20922 171.439206,132.874568 C171.439206,131.534625 172.8487,130.650096 174.247699,130.650096 C175.644093,130.650096 176.575073,131.532019 176.575073,132.874568 C176.575073,134.20922 175.646774,135.104176 174.247699,135.104176 Z M214.335629,149.366662 C214.335629,142.245885 206.877673,136.438828 198.499232,136.438828 C189.629101,136.438828 182.641845,142.243278 182.641845,149.366662 C182.641845,156.500474 189.629101,162.294496 198.499232,162.294496 C200.35583,162.294496 202.22821,161.84698 204.092699,161.399464 L209.205047,164.073982 L207.803367,159.622508 C211.54805,156.942777 214.335629,153.38373 214.335629,149.366662 Z M193.358155,147.136977 C192.42978,147.136977 191.493666,146.255055 191.493666,145.354885 C191.493666,144.467673 192.42978,143.575323 193.358155,143.575323 C194.767573,143.575323 195.690739,144.470279 195.690739,145.354885 C195.693344,146.255055 194.770255,147.136977 193.358155,147.136977 Z M203.614185,147.136977 C202.691019,147.136977 201.76272,146.255055 201.76272,145.354885 C201.76272,144.467673 202.693701,143.575323 203.614185,143.575323 C205.010579,143.575323 205.946693,144.470279 205.946693,145.354885 C205.946693,146.255055 205.010579,147.136977 203.614185,147.136977 L203.614185,147.136977 Z" id="微信-4" fill="#FFFFFF"></path>
            <g id="logo" transform="translate(20.000000, 104.000000)">
                <g>
                    <path d="M83.6420384,10.5490286 C83.6420384,10.5490286 92.0547194,9.84039452 97.695236,7.8302184 C97.695236,7.8302184 103.983518,10.8210599 101.06632,10.8210599 C98.1491225,10.8210599 88.6490677,12.1008094 83.6420384,10.5490286 Z" id="Fill-1" fill="#F95714"></path>
                    <path d="M94.84289,16.8173213 C94.84289,16.8173213 97.4354536,14.8319436 98.7324869,13.4702841 C100.028769,12.1093761 99.3396728,11.3879671 96.2158215,10.5493292 C96.2158215,10.5493292 95.1667726,16.1936031 94.5828822,16.614425 L94.84289,16.8173213 Z" id="Fill-3" fill="#F95714"></path>
                    <path d="M90.5961205,11.0932415 C90.5961205,11.0932415 92.540919,11.5584 93.286375,12.9523726 C94.0318309,14.3455937 93.4163789,15.642627 91.9412477,15.8365057 C90.4668681,16.0311358 90.3368642,14.1509636 90.3691773,13.2439421 C90.4014904,12.3361691 89.7537252,10.8617894 89.4290912,10.8212102 C89.1052086,10.7798795 90.5961205,11.0932415 90.5961205,11.0932415" id="Fill-5" fill="#F95714"></path>
                    <path d="M84.8265018,11.6876524 C84.8265018,11.6876524 87.4198168,11.7567875 88.4568423,13.6835507 C89.4938677,15.6103139 87.4844431,16.7765918 86.9659303,16.5827131 C86.4466661,16.388083 85.4742669,15.7282943 85.6688971,14.1457033 C85.8635272,12.5631123 85.3119499,11.9799734 84.8265018,11.6876524" id="Fill-7" fill="#F95714"></path>
                    <path d="M82.1361722,15.058962 C82.1361722,15.058962 83.5602035,16.1606137 83.6421135,18.2684806 C83.7240235,20.3748446 82.1684853,21.3795569 80.9360783,20.8287311 C79.7051742,20.2779053 79.6074834,19.2724415 80.6129472,18.3977331 C81.6176595,17.5222732 82.4600548,16.712191 82.1361722,15.058962" id="Fill-9" fill="#F95714"></path>
                    <path d="M89.0807108,16.5634004 C89.0807108,16.5634004 88.7823781,25.2616391 79.9684133,31.1937252 C79.9684133,31.1937252 85.3203663,30.1890129 88.3352548,25.7809033 C91.3501432,21.3720423 91.9979084,18.5194708 91.9979084,18.5194708 C91.9979084,18.5194708 92.8177597,17.806328 92.7801863,17.6770755 C92.7433644,17.5470716 92.2902294,16.9474004 91.1555131,16.7775687 C90.0207969,16.6069855 89.0807108,16.5634004 89.0807108,16.5634004" id="Fill-11" fill="#F95714"></path>
                    <path d="M99.5828477,16.0555585 C99.5828477,16.0555585 99.8022763,14.8156368 100.822769,15.3747288 C101.844014,15.9338207 103.205674,17.1361691 103.71592,18.0183922 C104.226918,18.8998638 103.813611,18.8998638 102.524844,18.8029245 C101.236077,18.7052337 99.7286325,18.6932102 99.5828477,18.8450067 C99.5828477,18.8450067 101.698229,17.5006309 99.5828477,16.8633863 L98.8050787,16.8175468 C98.8050787,16.8175468 99.4618614,16.4155115 99.5828477,16.0555585" id="Fill-13" fill="#F95714"></path>
                    <path d="M96.2159718,20.2128282 C96.2159718,20.2128282 96.8118857,20.0670434 97.2492399,19.3621667 C97.6873456,18.65729 97.7113926,18.098198 98.8047781,18.7294309 C99.8989151,19.3621667 100.84877,19.9047264 100.701483,20.2128282 C100.530899,20.5697753 96.0100697,20.4803507 96.0100697,20.4803507 L96.2159718,20.2128282 Z" id="Fill-15" fill="#F95714"></path>
                    <path d="M94.8825675,23.69791 C94.8825675,23.69791 95.2229824,21.8019569 96.2194286,22.2145127 C97.2158748,22.6285714 99.0163914,23.2598043 99.3928767,24.5733699 C99.3928767,24.5733699 98.0312172,25.034771 97.1377221,25.9831233 C96.244227,26.9314755 94.7615812,28.9491663 93.1083523,29.8975186 C91.4543718,30.8451194 86.7381605,33.0093464 82.8004697,32.6441331 C82.8004697,32.6441331 92.0953738,30.69182 94.8825675,23.69791" id="Fill-17" fill="#F95714"></path>
                    <path d="M89.7007468,23.6300524 C89.7007468,23.6300524 90.2155022,23.5436337 90.6686372,24.1598372 C91.1225237,24.7752892 93.035009,29.3134027 103.634461,29.7996023 C103.634461,29.7996023 102.240488,30.4158059 101.721976,31.193575 C101.203463,31.971344 101.397342,33.2368157 99.8914004,32.6852384 C98.3839562,32.1336611 91.7439875,30.5668509 89.4234552,23.8787883 L89.7007468,23.6300524 Z" id="Fill-19" fill="#F95714"></path>
                    <path d="M100.136229,16.9900838 L83.1162364,16.9900838 C82.9884869,16.9900838 82.8825299,16.8848783 82.8825299,16.7563773 C82.8825299,16.6286278 82.9884869,16.5234223 83.1162364,16.5234223 L100.136229,16.5234223 C100.26473,16.5234223 100.369935,16.6286278 100.369935,16.7563773 C100.369935,16.8848783 100.26473,16.9900838 100.136229,16.9900838" id="Fill-21" fill="#F95714"></path>
                    <path d="M97.4884321,20.4465346 L84.1333479,20.4465346 C84.004847,20.4465346 83.8996415,20.3413292 83.8996415,20.2128282 C83.8996415,20.0850787 84.004847,19.9798732 84.1333479,19.9798732 L97.4884321,19.9798732 C97.6169331,19.9798732 97.7221386,20.0850787 97.7221386,20.2128282 C97.7221386,20.3413292 97.6169331,20.4465346 97.4884321,20.4465346" id="Fill-23" fill="#F95714"></path>
                    <path d="M95.8159656,23.736836 L89.6569362,23.736836 C89.5284352,23.736836 89.4232297,23.6316305 89.4232297,23.5031295 C89.4232297,23.37538 89.5284352,23.2701746 89.6569362,23.2701746 L95.8159656,23.2701746 C95.9444665,23.2701746 96.049672,23.37538 96.049672,23.5031295 C96.049672,23.6316305 95.9444665,23.736836 95.8159656,23.736836" id="Fill-25" fill="#F95714"></path>
                    <path d="M118.390131,32.4447687 L118.390131,22.2097785 C118.390131,22.2097785 118.219548,21.4320094 119.313685,21.7483773 C120.408573,22.0647452 121.234436,22.5749918 121.793528,22.5749918 L125.610232,22.5749918 C125.610232,22.5749918 126.315861,20.9698568 126.801309,21.1404399 C127.28826,21.3110231 128.479336,21.6266395 129.549426,22.453254 C130.618013,23.2798685 130.472229,23.3039155 130.229505,23.6202834 C129.98678,23.9358998 129.743305,24.106483 129.743305,24.106483 L129.743305,32.1051053 C129.743305,32.1051053 129.937935,32.8092305 129.184213,33.2721346 C128.430491,33.7335358 126.426326,33.8552736 126.426326,33.0534575 L126.426326,31.1319546 L121.574851,31.1319546 L122.012205,30.5488157 L125.853708,30.5488157 C125.853708,30.5488157 126.426326,30.3301386 126.426326,29.9408783 L126.426326,27.5459507 C126.426326,27.5459507 126.254992,26.9019429 125.853708,26.9019429 L121.677802,26.9019429 L122.012205,26.4645886 L125.648557,26.4645886 C125.648557,26.4645886 126.426326,26.5480016 126.426326,25.734162 L126.426326,23.571438 C126.426326,23.571438 126.230945,22.9755241 125.756769,22.9755241 L122.121919,22.9755241 C122.121919,22.9755241 121.34415,22.8545378 121.34415,23.9847452 L121.34415,32.3598528 C121.34415,32.3598528 121.392244,32.8220055 121.015759,33.0038607 C120.638522,33.1864673 119.763814,33.4051444 119.216745,33.4051444 C118.669677,33.4051444 118.390131,33.1624204 118.390131,32.4447687" id="Fill-27" fill="#F95714"></path>
                    <g id="Group-31" transform="translate(153.299413, 9.113951)">
                        <mask id="mask-2" fill="white">
                            <use xlink:href="#path-1"></use>
                        </mask>
                        <g id="Clip-30"></g>
                        <path d="M0.419995303,2.2214137 C0.419995303,2.2214137 0.809255577,1.86446654 1.16545127,1.24901448 C1.52164697,0.632810959 1.7651225,0.0414058708 2.34826145,0.320951859 C2.93215186,0.600497847 3.90455108,1.21670137 4.43959609,1.7675272 C4.9746411,2.31835303 5.21736517,2.51298317 4.43959609,2.59414168 C3.66107554,2.6753002 2.54289159,2.65125323 2.54289159,2.65125323 L0.419995303,2.2214137 Z" id="Fill-29" fill="#F95714" mask="url(#mask-2)"></path>
                    </g>
                    <path d="M128.646463,19.2444869 C128.646463,19.2444869 129.00341,19.0017628 129.391919,18.4824986 C129.781179,17.9639859 130.407151,16.9750544 131.447934,18.0774575 C132.487214,19.1798607 132.649531,19.625481 132.341429,19.625481 L131.223245,19.625481 L128.646463,19.2444869 Z" id="Fill-32" fill="#F95714"></path>
                    <path d="M141.969609,12.1345503 C141.802784,13.514245 140.314126,14.5460102 138.643613,14.4393018 C136.973852,14.3325933 135.75422,13.1272391 135.921046,11.7475444 C136.087872,10.3678497 137.576529,9.33533307 139.247042,9.44204149 C140.918306,9.54950137 142.137187,10.7548556 141.969609,12.1345503" id="Fill-34" fill="#F95714"></path>
                    <path d="M140.829182,13.2441675 C140.829182,13.2441675 140.343734,13.9715883 140.796869,15.4519796 C140.896814,15.7788681 140.567671,14.6802223 137.957824,13.232144" id="Fill-36" fill="#F95714"></path>
                    <path d="M130.912589,14.5199342 L116.786499,14.5199342 C116.658749,14.5199342 116.555798,14.4162317 116.555798,14.2892337 C116.555798,14.1614841 116.658749,14.0577816 116.786499,14.0577816 L130.912589,14.0577816 L130.912589,14.5199342 Z" id="Fill-38" fill="#F95714"></path>
                    <path d="M131.450564,19.6254059 L116.786423,19.6254059 C116.658674,19.6254059 116.555723,19.5217033 116.555723,19.3947053 C116.555723,19.2669558 116.658674,19.1632532 116.786423,19.1632532 L131.450564,19.1632532 L131.450564,19.6254059 Z" id="Fill-40" fill="#F95714"></path>
                    <path d="M140.829182,18.3367139 L134.78663,18.3367139 C134.658881,18.3367139 134.555178,18.2330114 134.555178,18.1060133 C134.555178,17.9782638 134.658881,17.8745613 134.78663,17.8745613 L140.829182,17.8745613 L140.829182,18.3367139 Z" id="Fill-42" fill="#F95714"></path>
                    <path d="M156.182945,11.7654294 L143.52372,11.7654294 C143.377184,11.7654294 143.259203,11.6466975 143.259203,11.5009127 C143.259203,11.3543765 143.377184,11.2356446 143.52372,11.2356446 L156.182945,11.2356446 L156.182945,11.7654294 Z" id="Fill-44" fill="#F95714"></path>
                    <path d="M108.208645,11.0715992 C108.208645,11.0715992 113.459901,10.4982294 115.21007,17.2456579 C116.960238,23.9930865 115.59933,30.2227538 115.59933,30.2227538 C115.59933,30.2227538 115.372387,31.2049221 114.805029,31.8541902 C114.23767,32.5019554 113.589905,32.7183781 112.552128,32.9505816 C111.515103,33.1827851 110.916183,33.2316305 110.769647,32.3396384 C110.623862,31.4491491 110.461545,30.9569378 108.597905,30.2227538 C108.597905,30.2227538 109.246422,30.2926403 110.056504,30.2227538 C110.866586,30.1521159 112.195933,29.974018 112.666351,28.9850865 C113.136019,27.9969065 113.281804,23.4257284 113.039079,22.4375483 C113.039079,22.4375483 110.818492,25.7597871 107.835917,26.8133448 C107.835917,26.8133448 112.666351,20.4115914 112.827917,17.9152157 C112.827917,17.9152157 112.795604,13.6280924 108.208645,11.0715992" id="Fill-46" fill="#F95714"></path>
                    <path d="M107.835842,18.6309886 C107.835842,18.6309886 112.471646,16.8139397 114.934957,14.1229339 C114.934957,14.1229339 116.393556,12.8266521 116.652813,12.4697049 C116.912069,12.1135092 118.241415,12.1135092 118.241415,11.7242489 C118.241415,11.3357401 117.106699,9.77945049 114.675701,9.32556399 C114.675701,9.32556399 113.476359,13.7389339 107.835842,18.6309886" id="Fill-48" fill="#F95714"></path>
                    <path d="M128.111493,14.1394661 C128.111493,14.1394661 128.46844,13.8959906 128.856949,13.3774779 C129.246209,12.8589652 129.872182,11.8700337 130.912964,12.9724368 C131.952244,14.0748399 132.114561,14.5197088 131.806459,14.5197088 L130.689027,14.5197088 L128.111493,14.1394661 Z" id="Fill-50" fill="#F95714"></path>
                    <path d="M119.804994,9.64974716 L119.804994,19.3015984 L122.649299,19.3015984 L122.649299,10.8408235 C122.649299,10.8408235 123.427068,10.3065299 122.892775,9.94131663 C122.35773,9.57685479 121.945174,9.50396243 121.628806,9.47991546 C121.312438,9.45511703 120.413683,9.47991546 120.413683,9.47991546 C120.413683,9.47991546 119.804994,9.49193894 119.804994,9.64974716" id="Fill-52" fill="#F95714"></path>
                    <path d="M124.99185,9.64974716 L124.99185,19.3015984 L127.836155,19.3015984 L127.836155,10.8408235 C127.836155,10.8408235 128.613924,10.3065299 128.078879,9.94131663 C127.543834,9.57685479 127.131278,9.50396243 126.81491,9.47991546 C126.498542,9.45511703 125.599787,9.47991546 125.599787,9.47991546 C125.599787,9.47991546 124.99185,9.49193894 124.99185,9.64974716" id="Fill-54" fill="#F95714"></path>
                    <path d="M148.517072,12.6970239 L148.517072,31.092202 C148.517072,31.092202 148.30065,32.8348556 149.599937,32.6612665 C150.900728,32.4861746 151.7311,31.789564 151.7311,30.7427695 L151.7311,11.2391765 C151.7311,11.2391765 149.239233,11.2744955 148.842458,11.5653135 C148.44418,11.85538 148.517072,11.2812587 148.517072,12.6970239" id="Fill-56" fill="#F95714"></path>
                    <g id="Clip-59">
                        <mask id="mask-4" fill="white">
                            <use xlink:href="#path-3"></use>
                        </mask>
                        <g></g>
                    </g>
                    <polygon id="Fill-58" fill="#F95714" points="137.957448 27.771391 140.96407 27.771391 140.96407 18.1060133 137.957448 18.1060133"></polygon>
                    <path d="M137.692706,17.8747867 C137.692706,17.8747867 138.450937,15.9705675 138.945403,16.1975108 C139.44062,16.424454 140.964596,16.948227 141.644675,17.5772055 C142.325505,18.2069354 142.325505,18.24 141.644675,18.8877652 C140.964596,19.5362818 140.250702,19.9578552 140.250702,19.9578552 L137.692706,17.8747867 Z" id="Fill-60" fill="#F95714"></path>
                    <path d="M144.23799,25.4356791 C144.23799,25.4356791 141.320041,26.7327123 140.153011,27.1535342 C138.986733,27.5751076 137.171939,27.7051115 137.138874,28.2882505 C137.106561,28.8713894 137.144135,29.5304266 137.692706,30.2225284 C138.241277,30.9138787 139.124252,31.8216517 139.46091,31.5947084 C139.796816,31.3677652 142.195501,28.4505675 142.714765,27.5751076 C143.232526,26.7003992 144.23799,25.4356791 144.23799,25.4356791" id="Fill-61" fill="#F95714"></path>
                    <path d="M156.93584,22.5934779 L142.664717,22.5934779 C142.499394,22.5934779 142.365633,22.4597166 142.365633,22.2951452 C142.365633,22.1298223 142.499394,21.9960611 142.664717,21.9960611 L156.93584,21.9960611 L156.93584,22.5934779 Z" id="Fill-62" fill="#F95714"></path>
                    <path d="M143.258978,14.2891585 C143.258978,14.2891585 145.647894,15.0954834 146.814171,16.6029276 C147.981201,18.1096204 147.738477,20.1032642 146.134093,20.3948337 C144.528958,20.6871546 143.65425,19.3653229 144.23814,18.105863 C144.821279,16.8456517 145.688473,15.3344501 143.258978,14.2891585" id="Fill-63" fill="#F95714"></path>
                    <path d="M154.059147,13.4962098 C154.059147,13.4962098 159.374278,14.1717793 157.421965,15.8250082 C155.469652,17.4782372 152.503609,21.4775483 152.503609,21.4775483 C152.503609,21.4775483 153.816423,16.6516227 153.719483,15.0953331 C153.621793,13.5397949 154.059147,13.4962098 154.059147,13.4962098" id="Fill-64" fill="#F95714"></path>
                    <path d="M110.69713,35.6450442 C110.69713,35.6450442 112.727596,34.4592282 112.727596,34.9957761 L112.727596,41.4591499 C112.727596,41.4591499 112.67349,41.8844806 113.266398,41.9972008 C113.266398,41.9972008 113.633115,42.3556509 113.266398,42.3556509 L110.69713,42.3556509 C110.69713,42.3556509 110.668575,41.9972008 110.837655,41.9972008 C111.007486,41.9972008 111.374203,41.9656391 111.374203,41.4591499 L111.374203,36.2537331 C111.374203,36.2537331 111.317843,35.7570129 110.69713,35.6450442" id="Fill-65" fill="#F95714"></path>
                    <path d="M109.315256,41.5276838 C109.315256,41.9845761 108.944783,42.3558012 108.487139,42.3558012 C108.030247,42.3558012 107.659022,41.9845761 107.659022,41.5276838 C107.659022,41.0700399 108.030247,40.6988149 108.487139,40.6988149 C108.944783,40.6988149 109.315256,41.0700399 109.315256,41.5276838" id="Fill-66" fill="#F95714"></path>
                    <path d="M134.237683,41.5276838 C134.237683,41.9845761 133.867209,42.3558012 133.408814,42.3558012 C132.951922,42.3558012 132.581448,41.9845761 132.581448,41.5276838 C132.581448,41.0700399 132.951922,40.6988149 133.408814,40.6988149 C133.867209,40.6988149 134.237683,41.0700399 134.237683,41.5276838" id="Fill-67" fill="#F95714"></path>
                    <path d="M127.276387,38.3552125 C127.276387,38.3552125 129.307604,37.1693965 129.307604,37.7059444 L129.307604,41.4595256 C129.307604,41.4595256 129.253498,41.8841049 129.846406,41.9975765 C129.846406,41.9975765 130.213123,42.3552751 129.846406,42.3552751 L127.276387,42.3552751 C127.276387,42.3552751 127.248582,41.9975765 127.417663,41.9975765 C127.587494,41.9975765 127.954211,41.9660149 127.954211,41.4595256 L127.954211,38.9646528 C127.954211,38.9646528 127.89785,38.4679327 127.276387,38.3552125" id="Fill-68" fill="#F95714"></path>
                    <path d="M147.887418,38.3552125 C147.887418,38.3552125 149.918635,37.1693965 149.918635,37.7059444 L149.918635,41.4595256 C149.918635,41.4595256 149.863778,41.8841049 150.456686,41.9975765 C150.456686,41.9975765 150.823402,42.3552751 150.456686,42.3552751 L147.887418,42.3552751 C147.887418,42.3552751 147.858862,41.9975765 148.027942,41.9975765 C148.197774,41.9975765 148.56449,41.9660149 148.56449,41.4595256 L148.56449,38.9646528 C148.56449,38.9646528 148.50813,38.4679327 147.887418,38.3552125" id="Fill-69" fill="#F95714"></path>
                    <path d="M114.11691,38.0308039 C114.11691,38.0308039 116.148127,36.8449879 116.148127,37.3815358 L116.148127,43.8449096 C116.148127,43.8449096 116.09327,44.2702403 116.686178,44.3829605 C116.686178,44.3829605 117.052894,44.7414106 116.686178,44.7414106 L114.11691,44.7414106 C114.11691,44.7414106 114.089105,44.3829605 114.257434,44.3829605 C114.427266,44.3829605 114.793982,44.3513988 114.793982,43.8449096 L114.793982,38.6394928 C114.793982,38.6394928 114.737622,38.1427726 114.11691,38.0308039" id="Fill-70" fill="#F95714"></path>
                    <path d="M120.696611,35.6450442 C120.696611,35.6450442 122.727828,34.4592282 122.727828,34.9957761 L122.727828,41.4591499 C122.727828,41.4591499 122.672971,41.8844806 123.265879,41.9972008 C123.265879,41.9972008 123.632595,42.3556509 123.265879,42.3556509 L120.696611,42.3556509 C120.696611,42.3556509 120.668806,41.9972008 120.837886,41.9972008 C121.006967,41.9972008 121.374434,41.9656391 121.374434,41.4591499 L121.374434,36.2537331 C121.374434,36.2537331 121.318074,35.7570129 120.696611,35.6450442" id="Fill-71" fill="#F95714"></path>
                    <path d="M116.084327,38.7786646 C116.084327,38.7786646 116.762151,38.0730364 117.355059,37.9174826 C117.947967,37.7619288 118.781345,37.8611225 119.289337,38.5389464 C119.797329,39.2160188 119.806347,39.804418 119.646284,40.4724728 C119.486222,41.1412791 119.083435,41.748465 118.300405,42.2136235 C117.497838,42.6915569 116.135427,42.1873221 115.646222,42.074602 C115.646222,42.074602 115.571075,41.4005354 115.646222,41.4568955 C115.72212,41.514007 117.007881,42.2248955 117.497838,42.074602 C117.987043,41.9243084 118.39509,41.6966137 118.366535,40.2087076 C118.33873,38.7223045 117.387372,38.6561753 117.209274,38.6561753 C117.030425,38.6561753 116.290981,38.9387272 116.148202,39.2212791 C116.004672,39.5038309 116.084327,38.7786646 116.084327,38.7786646" id="Fill-72" fill="#F95714"></path>
                    <path d="M122.62375,38.7221542 C122.62375,38.7221542 123.654012,37.9023029 124.486638,37.8256532 C125.320016,37.7482521 125.686732,38.016526 125.842286,38.8348744 C125.99784,39.6539742 125.898646,41.4597511 125.898646,41.4597511 C125.898646,41.4597511 125.856564,41.8414967 126.111311,41.9406904 C126.365307,42.0398841 126.449472,42.054162 126.478027,42.1526043 C126.505832,42.2510466 126.478027,42.3555006 126.478027,42.3555006 L123.979397,42.3555006 C123.979397,42.3555006 123.923037,42.0676885 124.07784,41.9970505 C124.233393,41.927164 124.542247,41.8775671 124.556524,40.9630309 C124.572305,40.0492462 124.613636,39.3030387 124.402474,38.9633753 C124.19056,38.6229605 123.946333,38.482436 123.397761,38.7221542 C122.849941,38.9618724 122.62375,39.1595084 122.62375,39.1595084 L122.62375,38.7221542 Z" id="Fill-73" fill="#F95714"></path>
                    <path d="M149.825528,38.8967953 C149.825528,38.8967953 151.344244,37.7846231 152.17687,37.7064705 C153.009497,37.6290693 153.262741,38.0160751 153.418295,38.835175 C153.573097,39.6542748 153.474655,41.4593002 153.474655,41.4593002 C153.474655,41.4593002 153.432573,41.8417973 153.686569,41.940991 C153.941317,42.0401847 154.025481,42.0537112 154.054037,42.1529049 C154.081841,42.2513472 154.054037,42.3558012 154.054037,42.3558012 L151.555407,42.3558012 C151.555407,42.3558012 151.499047,42.067989 151.653849,41.9973511 C151.809403,41.9267131 152.118256,41.8778677 152.132534,40.9633315 C152.148315,40.0487953 152.189645,39.3033393 151.978483,38.9636759 C151.766569,38.6232611 151.522342,38.4819851 150.973771,38.7224548 C150.425951,38.962173 149.91871,39.2740321 149.91871,39.2740321 L149.825528,38.8967953 Z" id="Fill-74" fill="#F95714"></path>
                    <path d="M153.36712,38.8967953 C153.36712,38.8967953 154.885836,37.7846231 155.718463,37.7064705 C156.551089,37.6290693 156.804333,38.0160751 156.959887,38.835175 C157.11469,39.6542748 157.016247,41.4593002 157.016247,41.4593002 C157.016247,41.4593002 156.974165,41.8417973 157.228161,41.940991 C157.482909,42.0401847 157.567073,42.0537112 157.594877,42.1529049 C157.623433,42.2513472 157.594877,42.3558012 157.594877,42.3558012 L155.096999,42.3558012 C155.096999,42.3558012 155.040639,42.067989 155.195441,41.9973511 C155.350995,41.9267131 155.659848,41.8778677 155.674126,40.9633315 C155.689155,40.0487953 155.731238,39.3033393 155.520075,38.9636759 C155.308161,38.6232611 155.063934,38.4819851 154.515363,38.7224548 C153.967543,38.962173 153.460302,39.2740321 153.460302,39.2740321 L153.36712,38.8967953 Z" id="Fill-75" fill="#F95714"></path>
                    <path d="M129.113199,38.8872517 C129.113199,38.8872517 129.46188,37.7833456 130.351618,37.8126528 C131.242107,37.8419601 131.319508,38.0831812 131.319508,38.3492008 C131.319508,38.6167233 131.163955,39.3125824 130.738624,39.1968564 C130.313293,39.0811303 129.734663,38.6167233 129.307829,39.390735 C128.880996,40.1639953 129.113199,38.8872517 129.113199,38.8872517" id="Fill-76" fill="#F95714"></path>
                    <path d="M140.14452,41.1130239 C140.14452,41.1130239 138.751299,42.8541746 137.648144,41.2092117 C136.544989,39.5642489 137.666931,38.1905659 138.228277,38.248429 C138.789623,38.3070434 139.002289,39.4485229 139.931854,39.1577049 C140.859917,38.8683898 140.357185,37.5518184 138.827948,37.6968517 C137.299463,37.8418849 135.828841,38.5963585 135.886704,40.4359515 C135.944567,42.2740415 138.170414,42.7189104 139.07969,42.2552548 C139.989717,41.7900963 140.14452,41.1130239 140.14452,41.1130239" id="Fill-77" fill="#F95714"></path>
                    <path d="M144.648216,41.9767609 C143.954611,42.1353205 143.197883,41.4116571 142.958917,40.3603538 C142.71995,39.3090505 143.087418,38.3291366 143.781774,38.1713284 C144.475378,38.0135202 145.231355,38.7364321 145.471073,39.7877354 C145.71004,40.8382873 145.342572,41.8189526 144.648216,41.9767609 M146.937938,39.8997041 C146.856028,38.6154458 145.570267,37.6520642 144.06658,37.7482521 C142.562142,37.8444399 141.40939,38.9633753 141.492052,40.2483851 C141.573962,41.5326434 142.859723,42.496025 144.36341,42.3998372 C145.867097,42.3044008 147.019848,41.1847139 146.937938,39.8997041" id="Fill-78" fill="#F95714"></path>
                    <path d="M80.2670466,37.8422607 C80.2670466,37.8422607 81.0801346,38.7793409 82.4733558,42.3555757 L83.0925652,42.3555757 L84.4083851,39.5255483 L85.6468039,42.3555757 L86.2276885,42.3555757 C86.2276885,42.3555757 88.1627178,37.8422607 88.4723225,37.8422607 L87.0017002,37.8422607 C87.0017002,37.8422607 87.4270309,38.2675914 87.0595632,39.1768673 C86.6920955,40.0868947 86.3629526,40.8616579 86.3629526,40.8616579 L85.4920016,38.7132117 C85.4920016,38.7132117 85.2214732,37.8422607 85.5889409,37.8422607 L83.5178959,37.8422607 C83.5178959,37.8422607 83.6494027,37.8415092 84.1183186,38.8875523 L83.2669057,40.8616579 L82.3380916,38.6162724 C82.3380916,38.6162724 82.0863499,37.8422607 82.4928939,37.8422607 L80.2670466,37.8422607 Z" id="Fill-79" fill="#F95714"></path>
                    <path d="M89.2245417,37.8422607 C89.2245417,37.8422607 90.0376297,38.7793409 91.4308509,42.3555757 L92.0500603,42.3555757 L93.3666317,39.5255483 L94.604299,42.3555757 L95.185935,42.3555757 C95.185935,42.3555757 97.1209644,37.8422607 97.4305691,37.8422607 L95.9591953,37.8422607 C95.9591953,37.8422607 96.3852775,38.2675914 96.0170583,39.1768673 C95.6495906,40.0868947 95.3204477,40.8616579 95.3204477,40.8616579 L94.4494967,38.7132117 C94.4494967,38.7132117 94.1789683,37.8422607 94.546436,37.8422607 L92.4761425,37.8422607 C92.4761425,37.8422607 92.6076493,37.8415092 93.0758137,38.8875523 L92.2244008,40.8616579 L91.2955867,38.6162724 C91.2955867,38.6162724 91.043845,37.8422607 91.450389,37.8422607 L89.2245417,37.8422607 Z" id="Fill-80" fill="#F95714"></path>
                    <path d="M98.1819616,37.8422607 C98.1819616,37.8422607 98.9950497,38.7793409 100.389022,42.3555757 L101.008232,42.3555757 L102.324052,39.5255483 L103.56247,42.3555757 L104.143355,42.3555757 C104.143355,42.3555757 106.078384,37.8422607 106.387989,37.8422607 L104.917367,37.8422607 C104.917367,37.8422607 105.342697,38.2675914 104.97523,39.1768673 C104.607762,40.0868947 104.277868,40.8616579 104.277868,40.8616579 L103.407668,38.7132117 C103.407668,38.7132117 103.136388,37.8422607 103.503856,37.8422607 L101.433562,37.8422607 C101.433562,37.8422607 101.565069,37.8415092 102.033234,38.8875523 L101.181821,40.8616579 L100.253007,38.6162724 C100.253007,38.6162724 100.001265,37.8422607 100.407809,37.8422607 L98.1819616,37.8422607 Z" id="Fill-81" fill="#F95714"></path>
                    <path d="M8.92658313,34.0343988 C4.20582617,30.9468121 0.897082388,26.3340466 0.155027789,20.9786489 C-1.29680783,10.5039405 7.61710215,1.15643366 20.0636618,0.0983671233 C32.221362,-0.9359403 43.2532482,6.32277032 45.1108135,16.4226687 C39.5256854,18.8030856 35.4162869,23.5445149 34.747416,29.224955 C34.5084729,31.2536674 34.7299615,33.2208746 35.3388095,35.0511768 C32.4346976,36.6542384 29.0340474,37.7090652 25.3186755,38.0249425 C21.9177024,38.3142603 18.6048735,37.954643 15.5563427,37.0654735 C9.58946227,43.876915 9.11889131,47.3656147 9.3673456,45.607402 C10.0867155,40.5159453 9.64802833,36.7078655 8.92658313,34.0343988 Z M7.23746067,19.9302763 C7.06387162,25.1544798 12.8065879,32.5075914 25.1772493,29.1094544 C32.3860791,27.1308399 37.6854294,18.0628791 37.6854294,18.0628791 C21.6896877,31.9026599 7.23746067,19.9302763 7.23746067,19.9302763 Z" id="Combined-Shape" fill="#F95714"></path>
                    <path d="M64.085972,42.9356156 C63.892447,45.0666918 64.0558402,47.9518566 65.1715632,51.6012587 C65.5981799,52.9987777 64.7132373,50.0378783 58.4648892,45.0684717 C56.4987013,45.5058125 54.4170667,45.6792626 52.2861464,45.542926 C42.2908744,44.9026755 34.9971288,37.6915914 35.9950779,29.4352157 C36.993027,21.1795914 45.9039311,15.0025268 55.8992031,15.6420258 C65.8944751,16.2815249 73.1882207,23.4933605 72.1910231,31.7504877 C71.6239122,36.4384334 68.5054942,40.4559007 64.0859733,42.935617 Z M46.2239061,31.4540337 C46.1840783,35.972609 50.4727045,41.9174701 59.3911233,38.1150434 C64.5875225,35.9004681 68.2817378,27.7027068 68.2817378,27.7027068 C56.906771,40.7699789 46.2239061,31.4540337 46.2239061,31.4540337 Z" id="Combined-Shape" fill="#F95714"></path>
                </g>
            </g>
        </g>
    </g>
</svg>